{"title":"True Grit 2010 SCR XViD - IMAGiNE","uid":6076079,"size":1467972296,"categoryP":"video","categoryS":"movies","magnet":"?xt=urn:btih:cd54f681f99d2002311c85d3d51252ffbae60653&amp;dn=True+Grit+2010+SCR+XViD+-+IMAGiNE&amp;tr=udp%3A%2F%2Ftracker.openbittorrent.com%3A80&amp;tr=udp%3A%2F%2Fopen.demonii.com%3A1337&amp;tr=udp%3A%2F%2Ftracker.coppersurfer.tk%3A6969&amp;tr=udp%3A%2F%2Fexodus.desync.com%3A6969","seeders":0,"leechers":0,"uploader":"DibyaTPB","files":101,"time":1293863084,"description":"*********** ****    ****      ***      ******** *********** ****    *** **********\n          *+*     +*+*+* *+*+*+   *+* *+*   *+*    *+*    *+*     *+*+*   *+* *+*        \n          +*+     +*+ +*+*+ +*+  +*+   +*+  +*+           +*+     *+*+*+  +*+ +*+        \n          +$+     +$+  +*+  +$+ +$++*++$++* *$*           +$+     +$+ +*+ +$+ +$++*++$  \n          +$+     +$+       +$+ +$+     +$+ +$+   +$+$    +$+     +$+  +$+$+$ +$+        \n          $+$     $+$       $+$ $+$     $+$ $+$    $+$    $+$     $+$   $+$+$ $+$        \n      $$$$$$$$$$$ $$$       $$$ $$$     $$$  $$$$$$$$ $$$$$$$$$$$ $$$    $$$$ $$$$$$$$$$    \n                                               \n\n\n\n                          Another Fine Release Brought to you from - IMAGiNE                  \n                                               \n\n********************************************************************************************************************                                \n                                    True Grit 2010 SCR XViD - IMAGiNE\n********************************************************************************************************************\n\nRipper ...........: IMAGiNE                                        IMDB Rating.......:8.5/10                            \nVideo Codec.......: XVID                                         Release Date......:31/12/10\nAudio Codec.......:MP3                                           Theatre Date......:22/12/10\nAudio Bitrate.....:192                                              Runtime.......:1h 50mn\nSubtitles.........:NIL                                                 Language..........:ENGLISH\nResolution...... 720 x 304                                      IMDb URL..........:http://www.imdb.com/title/tt1403865/\n\n\nDETAILS:\n\nVideo\nID                               : 0\nFormat                           : MPEG-4 Visual\nFormat profile                   : Advanced Simple@L5\nFormat settings, BVOP            : Yes\nFormat settings, QPel            : No\nFormat settings, GMC             : No warppoints\nFormat settings, Matrix          : Default (H.263)\nMuxing mode                      : Packed bitstream\nCodec ID                         : XVID\nCodec ID/Hint                    : XviD\nDuration                         : 1h 50mn\nBit rate                         : 1 560 Kbps\nWidth                            : 720 pixels\nHeight                           : 304 pixels\nDisplay aspect ratio             : 2.35:1\nFrame rate                       : 23.976 fps\nColor space                      : YUV\nChroma subsampling               : 4:2:0\nBit depth                        : 8 bits\nScan type                        : Progressive\nBits/(Pixel*Frame)               : 0.297\nStream size                      : 1.20 GiB (89%)\nWriting library                  : XviD 1.1.2 (UTC 2006-11-01)\n\nAudio\nID                               : 1\nFormat                           : MPEG Audio\nFormat version                   : Version 1\nFormat profile                   : Layer 3\nCodec ID                         : 55\nCodec ID/Hint                    : MP3\nDuration                         : 1h 50mn\nBit rate mode                    : Constant\nBit rate                         : 192 Kbps\nChannel(s)                       : 2 channels\nSampling rate                    : 44.1 KHz\nStream size                      : 151 MiB (11%)\nAlignment                        : Split accross interleaves\nInterleave, duration             : 42 ms (1.00 video frame)\nInterleave, preload duration     : 500 ms\n\n\nSOURCES:\n\nVIDEO:True Grit.avi ................. Thanks LL\nAUDIO:True Grit.avi ................. Thanks LL\n\nNOTES:\n\nIMAGiNE bringing you another release..........True Grit 2010\n\nHere we go with another screener before we sign off for 2010\nSame Q as our The fighter release.\nMore or less done the same type of work,crop,resixe,rgb eq,sharpness,brigthness and\ncontrast.\nAudio was just muxed off the file we were sent.\n\nEnjoy folks\n\nSCREENS:\n\n","torrent":{"xt":"urn:btih:cd54f681f99d2002311c85d3d51252ffbae60653","amp;dn":"True+Grit+2010+SCR+XViD+-+IMAGiNE","amp;tr":["udp%3A%2F%2Ftracker.openbittorrent.com%3A80","udp%3A%2F%2Fopen.demonii.com%3A1337","udp%3A%2F%2Ftracker.coppersurfer.tk%3A6969","udp%3A%2F%2Fexodus.desync.com%3A6969"],"infoHash":"cd54f681f99d2002311c85d3d51252ffbae60653","infoHashBuffer":{"type":"Buffer","data":[205,84,246,129,249,157,32,2,49,28,133,211,213,18,82,255,186,230,6,83]},"announce":[],"urlList":[]}}